<?xml version="1.0" standalone="no"?>
<!DOCTYPE svg PUBLIC "-//W3C//DTD SVG 20010904//EN"
 "http://www.w3.org/TR/2001/REC-SVG-20010904/DTD/svg10.dtd">
<svg version="1.0" xmlns="http://www.w3.org/2000/svg"
 width="1000.000000pt" height="1000.000000pt" viewBox="0 0 1000.000000 1000.000000"
 preserveAspectRatio="xMidYMid meet">
<metadata>
Created by potrace 1.11, written by Peter Selinger 2001-2013
</metadata>
<g transform="translate(0.000000,1000.000000) scale(0.100000,-0.100000)"
fill="#000000" stroke="none">
<path d="M658 8120 c-77 -19 -168 -56 -179 -73 -3 -5 -10 -8 -14 -6 -13 4 -97
-59 -164 -124 -133 -129 -229 -317 -266 -520 -12 -67 -14 -312 -2 -362 47
-200 90 -296 192 -430 112 -147 260 -247 430 -291 66 -17 191 -18 2457 -18
1314 -1 2388 -2 2388 -3 0 -5 -100 -53 -106 -52 -4 0 -10 -3 -13 -8 -3 -5 -44
-28 -91 -52 -47 -24 -125 -65 -175 -91 -49 -26 -137 -72 -195 -102 -58 -31
-150 -79 -205 -108 -55 -29 -156 -82 -225 -117 -69 -36 -156 -82 -195 -103
-38 -21 -133 -70 -210 -110 -77 -40 -159 -84 -182 -97 -24 -14 -43 -21 -43
-16 0 4 -4 3 -8 -3 -4 -6 -38 -27 -77 -47 -38 -19 -108 -56 -155 -81 -47 -24
-114 -60 -150 -78 -36 -18 -66 -36 -68 -40 -2 -5 -12 -8 -23 -8 -10 0 -19 -4
-19 -10 0 -5 -9 -10 -19 -10 -11 0 -21 -3 -23 -7 -1 -5 -50 -32 -108 -62 -58
-29 -136 -70 -175 -91 -38 -21 -128 -68 -200 -105 -71 -37 -166 -87 -210 -110
-116 -62 -314 -165 -435 -226 -58 -30 -107 -56 -110 -59 -3 -3 -61 -34 -130
-69 -69 -35 -147 -76 -175 -91 -27 -15 -113 -60 -190 -100 -77 -40 -180 -94
-230 -120 -49 -26 -144 -76 -210 -110 -66 -35 -161 -85 -212 -111 -51 -27
-150 -78 -220 -115 -184 -95 -272 -143 -318 -172 -78 -49 -255 -244 -255 -281
0 -6 -4 -11 -10 -11 -5 0 -10 -9 -10 -19 0 -11 -4 -21 -8 -23 -21 -8 -82 -193
-100 -303 -9 -52 -9 -287 0 -345 22 -145 111 -365 173 -427 8 -8 15 -17 15
-21 0 -4 21 -30 48 -58 130 -141 292 -229 460 -250 31 -4 1972 -8 4312 -8
l4255 0 78 22 c207 58 371 188 490 387 19 33 37 67 39 75 2 8 6 17 9 20 6 5
50 131 56 160 25 121 31 180 28 285 -2 66 -6 131 -9 145 -14 62 -17 76 -22 97
-7 35 -51 154 -72 193 -64 127 -176 257 -280 327 -32 21 -60 42 -63 46 -3 5
-9 8 -12 8 -4 0 -27 8 -53 19 -25 11 -51 20 -58 20 -7 0 -16 3 -20 7 -31 31
-118 32 -2520 33 -1325 0 -2411 2 -2413 4 -3 2 40 27 94 54 93 48 170 88 343
179 41 22 127 66 190 99 63 32 117 61 120 64 3 3 52 29 110 59 58 29 141 72
185 95 44 23 148 77 230 121 83 43 173 91 201 106 29 15 98 51 155 80 57 29
106 56 107 61 2 4 10 8 17 8 8 0 30 10 50 22 39 22 191 102 315 164 41 21 77
40 80 44 3 3 52 29 110 59 136 68 279 143 410 213 58 30 148 77 200 104 52 27
97 51 100 54 3 3 59 32 125 65 66 33 122 62 125 65 3 3 48 27 100 53 160 82
382 198 450 236 36 19 71 36 79 38 8 1 17 5 20 10 3 4 47 28 96 53 50 25 92
47 95 50 3 3 34 20 70 37 36 18 121 63 190 99 188 99 219 114 226 113 4 0 10
3 13 8 3 5 24 17 46 27 22 11 42 22 45 25 3 3 57 32 120 64 208 106 315 162
320 167 3 3 21 17 40 30 35 24 142 128 170 165 64 85 123 204 158 320 30 98
34 132 37 275 3 113 -3 163 -30 288 -17 73 -109 282 -125 282 -4 0 -12 11 -18
25 -11 24 -41 61 -97 119 -79 82 -193 152 -320 197 l-70 24 -4300 2 c-4186 2
-4302 1 -4377 -17z"/>
</g>
</svg>
