<svg width="257" height="47" viewBox="0 0 257 47" fill="none" xmlns="http://www.w3.org/2000/svg">
<path d="M40.1171 6.88293C35.6784 2.44446 29.7771 0 23.5 0C17.2229 0 11.3216 2.44446 6.88293 6.88293C2.44446 11.3216 0 17.2229 0 23.5C0 29.7771 2.44446 35.6784 6.88293 40.1171C11.3216 44.5555 17.2229 47 23.5 47C29.7771 47 35.6784 44.5555 40.1171 40.1171C44.5555 35.6784 47 29.7771 47 23.5C47 17.2229 44.5555 11.3216 40.1171 6.88293V6.88293ZM43.3263 22.123V24.877H39.6515V22.123H43.3263ZM11.1055 13.0528L8.507 10.4543L10.4543 8.507L13.0528 11.1055L11.1055 13.0528ZM13.0528 35.8945L10.4543 38.493L8.507 36.5457L11.1055 33.9472L13.0528 35.8945ZM33.2206 22.123V24.877H22.123V13.7794H24.877V22.123H33.2206ZM24.877 7.34852H22.123V3.67371H24.877V7.34852ZM22.123 39.6515H24.877V43.3263H22.123V39.6515ZM33.9472 35.8945L35.8945 33.9472L38.493 36.5457L36.5457 38.493L33.9472 35.8945ZM35.8945 13.0528L33.9472 11.1055L36.5457 8.507L38.493 10.4543L35.8945 13.0528ZM7.34852 22.123V24.877H3.67371V22.123H7.34852Z" fill="#2164E6"/>
<path d="M124.227 13.8287C124.227 17.3408 131.213 19.1789 138.114 19.1789C145.014 19.1789 152 17.3408 152 13.8287C152 6.80448 124.227 6.80448 124.227 13.8287Z" fill="#2164E6"/>
<path d="M151.485 19.0106C151.167 18.8183 150.767 18.8047 150.436 18.9782C147.559 20.4872 143.183 21.319 138.114 21.319C133.044 21.319 128.668 20.4872 125.791 18.9782C125.46 18.8048 125.061 18.8183 124.743 19.0106C124.422 19.2039 124.227 19.5519 124.227 19.926V20.2488C124.227 23.7609 131.213 25.5991 138.114 25.5991C145.014 25.5991 152 23.7609 152 20.2488V19.926C152 19.5519 151.805 19.2039 151.485 19.0106Z" fill="#2164E6"/>
<path d="M111.409 35.2296C111.409 38.7418 118.395 40.5798 125.296 40.5798C132.196 40.5798 139.182 38.7417 139.182 35.2296C139.182 28.2054 111.409 28.2054 111.409 35.2296Z" fill="#2164E6"/>
<path d="M138.667 40.4116C138.347 40.2203 137.949 40.2057 137.618 40.3793C134.741 41.8882 130.365 42.72 125.296 42.72C120.226 42.72 115.85 41.8882 112.973 40.3793C112.642 40.2058 112.243 40.2204 111.924 40.4116C111.604 40.6049 111.409 40.9529 111.409 41.327V41.6499C111.409 45.162 118.395 47.0001 125.296 47.0001C132.196 47.0001 139.182 45.1619 139.182 41.6499V41.327C139.182 40.9529 138.987 40.6049 138.667 40.4116Z" fill="#2164E6"/>
<path d="M118.886 10.6185C120.329 10.6185 121.772 10.537 123.175 10.375C123.403 10.3489 123.617 10.2497 123.785 10.0918C125.403 8.56617 128.167 7.44077 131.779 6.83782C132.161 6.77403 132.479 6.50865 132.609 6.14293C132.72 5.83469 132.773 5.54839 132.773 5.26829C132.773 -1.75608 105 -1.75608 105 5.26819C105 8.78037 111.986 10.6185 118.886 10.6185Z" fill="#2164E6"/>
<path d="M118.886 17.0389C119.771 17.0389 120.634 17.0085 121.469 16.9531C121.806 16.9301 122.112 16.7504 122.295 16.4661C122.478 16.1829 122.517 15.8287 122.4 15.5121C122.192 14.953 122.091 14.4023 122.096 13.7712C122.096 13.4786 121.976 13.1986 121.764 12.9969C121.554 12.7952 121.256 12.673 120.977 12.7022C120.279 12.7357 119.581 12.7586 118.886 12.7586C113.817 12.7586 109.441 11.9268 106.564 10.4179C106.233 10.2444 105.833 10.258 105.515 10.4502C105.195 10.6437 105 10.9917 105 11.3658V11.6887C105 15.2008 111.986 17.0389 118.886 17.0389Z" fill="#2164E6"/>
<path d="M118.886 23.459C119.771 23.459 120.634 23.4287 121.469 23.3733C121.806 23.3503 122.112 23.1706 122.295 22.8863C122.478 22.6031 122.517 22.2489 122.4 21.9323C122.192 21.3732 122.091 20.8225 122.091 20.1914C122.091 19.8988 121.971 19.6188 121.759 19.4171C121.549 19.2154 121.256 19.1004 120.972 19.1224C120.276 19.1558 119.58 19.1787 118.886 19.1787C113.817 19.1787 109.441 18.347 106.564 16.838C106.233 16.6646 105.833 16.6782 105.515 16.8704C105.195 17.0638 105 17.4118 105 17.7859V18.1087C105 21.6209 111.986 23.459 118.886 23.459Z" fill="#2164E6"/>
<path d="M151.485 31.8513C151.165 31.6559 150.767 31.6454 150.436 31.8189C148.426 32.8733 145.598 33.61 142.259 33.9476C141.696 34.005 141.294 34.6634 141.318 35.2298C141.318 35.7721 141.231 36.2904 141.051 36.8118C140.932 37.1577 140.998 37.5413 141.225 37.8276C141.43 38.0836 141.738 38.2309 142.061 38.2309C142.099 38.2309 142.137 38.2288 142.176 38.2246C148.327 37.56 152 35.6405 152 33.0896V32.7667C152 32.3926 151.805 32.0446 151.485 31.8513Z" fill="#2164E6"/>
<path d="M125.295 27.7394L126.004 27.7519C126.01 27.7519 126.016 27.7519 126.023 27.7519C126.521 27.7519 126.954 27.406 127.065 26.918C127.176 26.4227 126.926 25.918 126.465 25.7079L126.236 25.6055C126.084 25.5386 125.931 25.4717 125.789 25.3975C125.456 25.2229 125.062 25.2386 124.742 25.4319C124.422 25.6252 124.227 25.9722 124.227 26.3462V26.6691C124.227 27.2608 124.705 27.7394 125.295 27.7394Z" fill="#2164E6"/>
<path d="M151.485 25.431C151.167 25.2387 150.767 25.2251 150.436 25.3986C147.559 26.9076 143.183 27.7394 138.114 27.7394L137.408 27.7257C136.978 27.6892 136.462 28.0685 136.353 28.5627C136.242 29.057 136.493 29.5606 136.953 29.7696C138.109 30.2963 139.055 30.9223 139.761 31.6297C139.962 31.8304 140.233 31.9421 140.516 31.9421C140.538 31.9421 140.561 31.9411 140.584 31.94C145.85 31.6056 152 30.0246 152 26.6692V26.3464C152 25.9723 151.805 25.6243 151.485 25.431Z" fill="#2164E6"/>
<path d="M113.933 29.5471C114.067 29.5471 114.201 29.522 114.327 29.4719C116.209 28.7268 118.503 28.2137 121.149 27.9473C121.712 27.8909 122.115 27.1782 122.091 26.6118C122.091 26.3192 121.971 26.0392 121.759 25.8375C121.548 25.6358 121.256 25.5282 120.971 25.5428C120.276 25.5762 119.58 25.5992 118.886 25.5992C113.817 25.5992 109.441 24.7674 106.564 23.2584C106.233 23.085 105.833 23.0986 105.515 23.2908C105.195 23.4842 105 23.8321 105 24.2062V24.529C105 26.8938 108.284 28.7664 113.785 29.5365C113.834 29.5439 113.885 29.5471 113.933 29.5471Z" fill="#2164E6"/>
<g clip-path="url(#clip0)">
<path d="M223.751 14.5277L229.925 20.7023L231.789 18.8381L225.614 12.6634V7.71063L216.308 1.00073L212.088 5.22086L218.798 14.5277H223.751Z" fill="#2164E6"/>
<path d="M243.583 3.31431C239.56 7.34045 241.982 12.0869 242.004 12.3506L223.44 30.9192C223.176 30.8989 218.44 28.4593 214.403 32.4964C212.037 34.864 211.417 38.4815 212.857 41.5004L218.133 36.2259L221.861 39.9544L216.587 45.2289C219.539 46.6406 223.167 46.1074 225.589 43.6825C229.615 39.6591 227.191 34.9113 227.169 34.6477L245.733 16.0801C245.997 16.1062 250.749 18.5245 254.769 14.5004C257.137 12.1343 257.757 8.51668 256.316 5.4975L251.041 10.772L247.313 7.04382L252.587 1.76798C249.654 0.372029 246.027 0.87431 243.583 3.31431V3.31431Z" fill="#2164E6"/>
<path d="M235.509 30.0119L241.099 24.4226L242.971 26.2947L237.381 31.884L235.509 30.0119Z" fill="#2164E6"/>
<path d="M251.496 45.9991L239.254 33.7565L244.843 28.1672L257.085 40.4094L251.496 45.9991Z" fill="#2164E6"/>
</g>
<defs>
<clipPath id="clip0">
<rect x="212" y="1" width="45" height="45" fill="white"/>
</clipPath>
</defs>
</svg>
