<svg width="194" height="105" viewBox="0 0 194 105" fill="none" xmlns="http://www.w3.org/2000/svg">
<path d="M16.4599 62.9057L40.5252 35.1132C41.893 33.5336 43.7212 32.4221 45.7531 31.9348L169.203 2.33203C174.574 1.04418 179.972 4.35391 181.259 9.72451L191.247 51.3731C192.534 56.7437 189.225 62.1414 183.854 63.4292L60.404 93.0321C58.3721 93.5193 56.2386 93.3578 54.3031 92.5703L20.2507 78.7142C13.9072 76.133 11.9769 68.083 16.4599 62.9057Z" fill="#2164E6"/>
<circle cx="36.8702" cy="66.7548" r="7.10569" transform="rotate(-13.4847 36.8702 66.7548)" fill="white"/>
<path d="M80.1826 67.2396C78.4905 67.6454 76.883 67.5887 75.3599 67.0695C73.8369 66.5503 72.5072 65.594 71.371 64.2006C70.2495 62.783 69.4253 60.9754 68.8983 58.7777C68.3713 56.58 68.2884 54.6048 68.6497 52.8523C69.0258 51.0756 69.7748 49.6106 70.8968 48.4571C72.0187 47.3037 73.4257 46.5241 75.1178 46.1184C76.8098 45.7126 78.4174 45.7694 79.9404 46.2885C81.4634 46.8077 82.7857 47.776 83.9072 49.1936C85.0434 50.5871 85.8751 52.3826 86.4021 54.5803C86.9291 56.778 87.0045 58.7652 86.6285 60.5419C86.2672 62.2945 85.5255 63.7474 84.4036 64.9009C83.2816 66.0543 81.8746 66.8339 80.1826 67.2396ZM79.2242 63.2429C80.4689 62.9444 81.3131 62.1764 81.7567 60.9389C82.2198 59.6966 82.1832 57.9572 81.6469 55.7206C81.1105 53.484 80.3543 51.9172 79.3782 51.02C78.4216 50.1183 77.3209 49.8166 76.0762 50.1151C74.8509 50.4089 74.0067 51.1769 73.5436 52.4192C73.1 53.6567 73.1463 55.3938 73.6826 57.6304C74.219 59.867 74.9655 61.4362 75.9221 62.338C76.8982 63.2351 77.9989 63.5367 79.2242 63.2429ZM105.887 43.8612C107.346 43.5114 108.75 43.5347 110.099 43.9309C111.464 44.303 112.633 45.02 113.608 46.0821C114.578 47.1247 115.256 48.4531 115.643 50.0673C116.03 51.6816 116.03 53.1829 115.644 54.5714C115.252 55.9405 114.535 57.1099 113.492 58.0798C112.465 59.0255 111.221 59.6733 109.763 60.023C107.759 60.5034 106.033 60.2491 104.582 59.2601L106.338 66.5825L101.787 67.6738L96.6661 46.3192L101.013 45.2768L101.447 47.0856C102.248 45.4537 103.728 44.3789 105.887 43.8612ZM108.08 56.4778C109.246 56.198 110.106 55.5805 110.659 54.6253C111.226 53.646 111.351 52.4951 111.034 51.1726C110.717 49.8501 110.086 48.8908 109.141 48.2948C108.21 47.6746 107.162 47.5044 105.995 47.7842C104.828 48.0641 103.961 48.6936 103.394 49.6729C102.841 50.6281 102.723 51.7669 103.041 53.0894C103.358 54.4119 103.981 55.3832 104.912 56.0034C105.857 56.5995 106.913 56.7576 108.08 56.4778ZM132.248 37.7868L129.153 56.1445C128.868 58.1258 128.278 59.6142 127.386 60.6097C126.513 61.6006 125.328 62.2756 123.83 62.6347C123.013 62.8306 122.176 62.8977 121.318 62.8361C120.46 62.7745 119.724 62.5806 119.111 62.2546L119.998 58.6176C120.422 58.8449 120.879 58.9924 121.369 59.0601C121.877 59.1232 122.355 59.1012 122.803 58.9939C123.425 58.8447 123.893 58.5678 124.208 58.1634C124.527 57.7784 124.758 57.1985 124.901 56.4237L124.925 56.2639L114.336 42.0821L119.033 40.9558L125.991 50.5476L127.872 38.8361L132.248 37.7868ZM143.661 36.1914C145.159 35.8323 146.546 35.8287 147.823 36.1806C149.096 36.513 150.167 37.1612 151.035 38.1252C151.924 39.0845 152.543 40.2935 152.892 41.7522C153.251 43.2497 153.201 44.6705 152.742 46.0147C152.298 47.3347 151.501 48.4719 150.352 49.4261C149.198 50.361 147.794 51.0266 146.141 51.423C143.399 52.0806 141.03 51.7231 139.035 50.3504C137.055 48.9537 135.657 46.5536 134.841 43.1501C134.085 39.9994 134.164 37.3273 135.078 35.1338C136.006 32.9161 137.82 31.1751 140.52 29.9108L147.631 26.6321L149.182 30.3943L142.903 33.2881C141.198 34.0673 140.006 34.9702 139.326 35.9969C138.666 37.0189 138.438 38.2974 138.642 39.8322C139.145 38.93 139.827 38.1701 140.687 37.5526C141.542 36.9156 142.533 36.4619 143.661 36.1914ZM145.324 47.8861C146.491 47.6063 147.334 47.0031 147.852 46.0768C148.389 45.1457 148.518 44.0967 148.239 42.9298C147.954 41.7434 147.368 40.8864 146.481 40.3589C145.613 39.8266 144.595 39.7004 143.428 39.9802C142.242 40.2647 141.373 40.8433 140.821 41.716C140.269 42.5887 140.136 43.6182 140.42 44.8046C140.705 45.991 141.307 46.8748 142.228 47.4561C143.145 48.0179 144.177 48.1612 145.324 47.8861Z" fill="white"/>
</svg>
