<svg width="232" height="32" viewBox="0 0 232 32" fill="none" xmlns="http://www.w3.org/2000/svg">
<path d="M78.928 12.368H73.552V26H69.712V12.368H64.36V9.2H78.928V12.368ZM92.3208 19.592C92.3208 19.64 92.2968 19.976 92.2488 20.6H82.4808C82.6568 21.4 83.0728 22.032 83.7288 22.496C84.3848 22.96 85.2008 23.192 86.1768 23.192C86.8488 23.192 87.4408 23.096 87.9528 22.904C88.4808 22.696 88.9688 22.376 89.4168 21.944L91.4088 24.104C90.1928 25.496 88.4168 26.192 86.0808 26.192C84.6248 26.192 83.3368 25.912 82.2168 25.352C81.0968 24.776 80.2328 23.984 79.6248 22.976C79.0168 21.968 78.7128 20.824 78.7128 19.544C78.7128 18.28 79.0088 17.144 79.6008 16.136C80.2088 15.112 81.0328 14.32 82.0728 13.76C83.1288 13.184 84.3048 12.896 85.6008 12.896C86.8648 12.896 88.0088 13.168 89.0328 13.712C90.0568 14.256 90.8568 15.04 91.4328 16.064C92.0248 17.072 92.3208 18.248 92.3208 19.592ZM85.6248 15.728C84.7768 15.728 84.0648 15.968 83.4888 16.448C82.9128 16.928 82.5608 17.584 82.4328 18.416H88.7928C88.6648 17.6 88.3128 16.952 87.7368 16.472C87.1608 15.976 86.4568 15.728 85.6248 15.728ZM108.031 13.088V26H104.287V16.16H98.9106V26H95.1906V13.088H108.031ZM124.004 13.088V26H120.26V16.16H116.18L116.06 18.44C115.996 20.136 115.836 21.544 115.58 22.664C115.324 23.784 114.908 24.664 114.332 25.304C113.756 25.944 112.956 26.264 111.932 26.264C111.388 26.264 110.74 26.168 109.988 25.976L110.18 22.904C110.436 22.936 110.62 22.952 110.732 22.952C111.292 22.952 111.708 22.752 111.98 22.352C112.268 21.936 112.46 21.416 112.556 20.792C112.652 20.152 112.724 19.312 112.772 18.272L112.964 13.088H124.004ZM133.653 26.192C132.293 26.192 131.069 25.912 129.981 25.352C128.909 24.776 128.069 23.984 127.461 22.976C126.853 21.968 126.549 20.824 126.549 19.544C126.549 18.264 126.853 17.12 127.461 16.112C128.069 15.104 128.909 14.32 129.981 13.76C131.069 13.184 132.293 12.896 133.653 12.896C135.013 12.896 136.229 13.184 137.301 13.76C138.373 14.32 139.213 15.104 139.821 16.112C140.429 17.12 140.733 18.264 140.733 19.544C140.733 20.824 140.429 21.968 139.821 22.976C139.213 23.984 138.373 24.776 137.301 25.352C136.229 25.912 135.013 26.192 133.653 26.192ZM133.653 23.12C134.613 23.12 135.397 22.8 136.005 22.16C136.629 21.504 136.941 20.632 136.941 19.544C136.941 18.456 136.629 17.592 136.005 16.952C135.397 16.296 134.613 15.968 133.653 15.968C132.693 15.968 131.901 16.296 131.277 16.952C130.653 17.592 130.341 18.456 130.341 19.544C130.341 20.632 130.653 21.504 131.277 22.16C131.901 22.8 132.693 23.12 133.653 23.12ZM147.441 12.848C148.833 12.848 150.073 13.136 151.161 13.712C152.265 14.272 153.129 15.064 153.753 16.088C154.377 17.112 154.689 18.264 154.689 19.544C154.689 20.824 154.377 21.976 153.753 23C153.129 24.024 152.265 24.824 151.161 25.4C150.073 25.96 148.833 26.24 147.441 26.24C146.209 26.24 145.089 26.04 144.081 25.64C143.089 25.224 142.265 24.632 141.609 23.864L143.745 21.848C144.721 22.856 145.905 23.36 147.297 23.36C148.225 23.36 149.025 23.128 149.697 22.664C150.369 22.2 150.825 21.568 151.065 20.768H145.641V18.2H151.017C150.761 17.432 150.305 16.824 149.649 16.376C148.993 15.928 148.209 15.704 147.297 15.704C145.921 15.704 144.737 16.216 143.745 17.24L141.609 15.248C142.265 14.464 143.089 13.872 144.081 13.472C145.089 13.056 146.209 12.848 147.441 12.848ZM157.23 13.088H160.95V18.128H166.566V13.088H170.31V26H166.566V21.176H160.95V26H157.23V13.088ZM186.446 19.592C186.446 19.64 186.422 19.976 186.374 20.6H176.606C176.782 21.4 177.198 22.032 177.854 22.496C178.51 22.96 179.326 23.192 180.302 23.192C180.974 23.192 181.566 23.096 182.078 22.904C182.606 22.696 183.094 22.376 183.542 21.944L185.534 24.104C184.318 25.496 182.542 26.192 180.206 26.192C178.75 26.192 177.462 25.912 176.342 25.352C175.222 24.776 174.358 23.984 173.75 22.976C173.142 21.968 172.838 20.824 172.838 19.544C172.838 18.28 173.134 17.144 173.726 16.136C174.334 15.112 175.158 14.32 176.198 13.76C177.254 13.184 178.43 12.896 179.726 12.896C180.99 12.896 182.134 13.168 183.158 13.712C184.182 14.256 184.982 15.04 185.558 16.064C186.15 17.072 186.446 18.248 186.446 19.592ZM179.75 15.728C178.902 15.728 178.19 15.968 177.614 16.448C177.038 16.928 176.686 17.584 176.558 18.416H182.918C182.79 17.6 182.438 16.952 181.862 16.472C181.286 15.976 180.582 15.728 179.75 15.728ZM196.924 12.896C198.124 12.896 199.212 13.176 200.188 13.736C201.18 14.28 201.956 15.056 202.516 16.064C203.076 17.056 203.356 18.216 203.356 19.544C203.356 20.872 203.076 22.04 202.516 23.048C201.956 24.04 201.18 24.816 200.188 25.376C199.212 25.92 198.124 26.192 196.924 26.192C195.276 26.192 193.98 25.672 193.036 24.632V30.656H189.292V13.088H192.868V14.576C193.796 13.456 195.148 12.896 196.924 12.896ZM196.276 23.12C197.236 23.12 198.02 22.8 198.628 22.16C199.252 21.504 199.564 20.632 199.564 19.544C199.564 18.456 199.252 17.592 198.628 16.952C198.02 16.296 197.236 15.968 196.276 15.968C195.316 15.968 194.524 16.296 193.9 16.952C193.292 17.592 192.988 18.456 192.988 19.544C192.988 20.632 193.292 21.504 193.9 22.16C194.524 22.8 195.316 23.12 196.276 23.12ZM216.324 16.16H209.7V26H205.98V13.088H216.324V16.16ZM223.817 26.192C222.457 26.192 221.233 25.912 220.145 25.352C219.073 24.776 218.233 23.984 217.625 22.976C217.017 21.968 216.713 20.824 216.713 19.544C216.713 18.264 217.017 17.12 217.625 16.112C218.233 15.104 219.073 14.32 220.145 13.76C221.233 13.184 222.457 12.896 223.817 12.896C225.177 12.896 226.393 13.184 227.465 13.76C228.537 14.32 229.377 15.104 229.985 16.112C230.593 17.12 230.897 18.264 230.897 19.544C230.897 20.824 230.593 21.968 229.985 22.976C229.377 23.984 228.537 24.776 227.465 25.352C226.393 25.912 225.177 26.192 223.817 26.192ZM223.817 23.12C224.777 23.12 225.561 22.8 226.169 22.16C226.793 21.504 227.105 20.632 227.105 19.544C227.105 18.456 226.793 17.592 226.169 16.952C225.561 16.296 224.777 15.968 223.817 15.968C222.857 15.968 222.065 16.296 221.441 16.952C220.817 17.592 220.505 18.456 220.505 19.544C220.505 20.632 220.817 21.504 221.441 22.16C222.065 22.8 222.857 23.12 223.817 23.12Z" fill="black"/>
<g clip-path="url(#clip0)">
<path d="M46.9254 9.42023H4.1703C1.94168 9.42023 0.105225 7.30608 0.105225 4.71597C0.105225 2.12587 1.93212 0.0117188 4.1703 0.0117188H46.9254C49.1636 0.0117188 50.9905 2.12587 50.9905 4.71597C50.9905 7.30608 49.1636 9.42023 46.9254 9.42023Z" fill="#FFD60D"/>
<path d="M48.618 8.9895L5.73855 31.4482C3.70123 32.5108 1.28131 31.4592 0.36308 29.1016C-0.555149 26.7439 0.353515 23.9435 2.39084 22.8809L45.2607 0.422226C47.298 -0.640383 49.7179 0.411157 50.6362 2.76882C51.5639 5.11541 50.6553 7.92689 48.618 8.9895Z" fill="#FFD60D"/>
<path d="M46.829 31.9984H4.0739C1.83571 31.9984 0.00881958 29.8842 0.00881958 27.2941C0.00881958 24.704 1.83571 22.5898 4.0739 22.5898H46.829C49.0672 22.5898 50.8941 24.704 50.8941 27.2941C50.8941 29.8842 49.0672 31.9984 46.829 31.9984Z" fill="#FFD60D"/>
</g>
<defs>
<clipPath id="clip0">
<rect width="51" height="32" fill="white"/>
</clipPath>
</defs>
</svg>
