<svg width="171" height="232" viewBox="0 0 171 232" fill="none" xmlns="http://www.w3.org/2000/svg">
<path d="M58.1429 148.643C59.3995 137.621 62.8761 128.785 68.5728 122.134C74.4815 115.508 82.7003 108.393 93.2293 100.79C100.949 95.2285 106.64 90.5095 110.303 86.6327C114.202 82.5682 116.465 77.7805 117.094 72.2695C117.988 64.427 115.509 57.9177 109.658 52.7415C104.043 47.3776 96.0419 44.1036 85.6559 42.9195C75.6938 41.7837 66.5498 42.8884 58.2239 46.2334C50.1342 49.3907 43.017 54.3766 36.8722 61.1911L0.97501 34.2313C11.4239 21.6808 24.5959 12.5541 40.4908 6.85123C56.5978 1.17254 75.0373 -0.482698 95.8094 1.88552C120.185 4.66455 139.093 12.0808 152.534 24.1343C166.187 36.2119 171.963 51.471 169.86 69.9115C168.87 78.6019 166.516 86.0633 162.799 92.2958C159.295 98.5524 155.157 103.771 150.386 107.95C145.851 111.942 139.96 116.531 132.713 121.717C124.073 127.818 117.673 133.1 113.514 137.564C109.379 141.817 106.925 147.334 106.152 154.117L58.1429 148.643ZM73.208 231.201C64.5177 230.211 57.5192 226.621 52.2126 220.434C47.1421 214.058 45.0661 206.843 45.9844 198.789C46.9026 190.734 50.5253 184.384 56.8524 179.737C63.2036 174.879 70.8304 172.957 79.7327 173.972C88.635 174.987 95.6335 178.576 100.728 184.74C105.847 190.691 107.947 197.694 107.029 205.749C106.111 213.803 102.358 220.353 95.7704 225.4C89.4192 230.258 81.8984 232.192 73.208 231.201Z" fill="black" fill-opacity="0.05"/>
</svg>
