<svg width="25" height="25" viewBox="0 0 25 25" fill="none" xmlns="http://www.w3.org/2000/svg">
<path d="M21.3855 10.4909C21.4155 6.96619 18.4135 3.735 14.6936 3.28818C14.6196 3.27939 14.539 3.26606 14.4537 3.2519C14.2695 3.22138 14.0791 3.19003 13.8869 3.19003C13.1245 3.19003 12.9207 3.72558 12.867 4.04501C12.8149 4.35556 12.8647 4.61635 13.0147 4.8205C13.2672 5.1638 13.7114 5.22474 14.0683 5.27362C14.1729 5.28807 14.2715 5.3015 14.3542 5.32005C17.6964 6.06688 18.8218 7.24099 19.3718 10.5548C19.3852 10.6358 19.3912 10.7356 19.3977 10.8414C19.4217 11.2375 19.4717 12.0616 20.3577 12.0616H20.3578C20.4316 12.0616 20.5108 12.0553 20.5933 12.0427C21.4184 11.9173 21.3926 11.164 21.3801 10.802C21.3766 10.7001 21.3733 10.6036 21.382 10.5395C21.3842 10.5234 21.3854 10.5071 21.3855 10.4909Z" fill="#7F40BD"/>
<path d="M13.6705 1.99443C13.7695 2.00155 13.8633 2.00839 13.9413 2.02035C19.4295 2.86439 21.9535 5.46468 22.653 10.9959C22.6648 11.0899 22.6667 11.2045 22.6686 11.326C22.6756 11.7581 22.69 12.6571 23.6555 12.6757L23.6854 12.676C23.9882 12.676 24.2291 12.5847 24.4014 12.4044C24.7019 12.0901 24.6809 11.6231 24.664 11.2478C24.6599 11.1557 24.6559 11.069 24.6569 10.993C24.7267 5.33606 19.83 0.206347 14.1781 0.0156249C14.1547 0.0148437 14.1323 0.0161132 14.1097 0.019287C14.0986 0.0208984 14.078 0.0229491 14.0428 0.0229491C13.9864 0.0229491 13.9171 0.0180663 13.8435 0.0130859C13.7546 0.00698239 13.6538 0 13.5517 0C12.6516 0 12.4805 0.639744 12.4586 1.02109C12.4081 1.90248 13.2608 1.96449 13.6705 1.99443Z" fill="#7F40BD"/>
<path d="M22.3881 18.1446C22.2714 18.0554 22.1508 17.9632 22.0379 17.8722C21.4386 17.39 20.8011 16.9455 20.1846 16.5156C20.0567 16.4265 19.9287 16.3373 19.8012 16.2478C19.0115 15.6931 18.3014 15.4235 17.6306 15.4235C16.7271 15.4235 15.9394 15.9227 15.2893 16.9071C15.0013 17.3435 14.6518 17.5557 14.2211 17.5557C13.9665 17.5557 13.6771 17.483 13.3612 17.3396C10.812 16.1837 8.99177 14.4113 7.9509 12.0718C7.44773 10.941 7.61086 10.2019 8.49641 9.60035C8.99928 9.25904 9.93532 8.62365 9.86901 7.4069C9.79391 6.02517 6.74519 1.86762 5.46063 1.39546C4.91678 1.19546 4.34535 1.1936 3.75917 1.39082C2.28242 1.88725 1.2227 2.75907 0.694287 3.91185C0.183644 5.02576 0.206691 6.33367 0.760986 7.69421C2.36332 11.6279 4.6161 15.0576 7.45701 17.8877C10.2378 20.6582 13.6555 22.9276 17.6153 24.6327C17.9722 24.7862 18.3466 24.87 18.6199 24.9311C18.7131 24.952 18.7935 24.9699 18.8521 24.986C18.8844 24.9948 18.9176 24.9995 18.9509 24.9998L18.9822 24.9999C18.9823 24.9999 18.9822 24.9999 18.9823 24.9999C20.8447 24.9999 23.081 23.2981 23.7678 21.3579C24.3695 19.659 23.2709 18.8193 22.3881 18.1446Z" fill="#7F40BD"/>
<path d="M14.4943 6.48786C14.1755 6.49592 13.5119 6.51237 13.279 7.18825C13.1701 7.50407 13.1832 7.77829 13.3179 8.00329C13.5155 8.33341 13.8943 8.43458 14.2388 8.4901C15.4881 8.69059 16.1297 9.3814 16.258 10.664C16.3176 11.2621 16.7203 11.6797 17.2374 11.6797H17.2375C17.2757 11.6797 17.3148 11.6774 17.3537 11.6727C17.9756 11.5987 18.2771 11.1418 18.2498 10.3148C18.2598 9.45167 17.8081 8.47179 17.0398 7.69127C16.2688 6.90837 15.3396 6.46745 14.4943 6.48786Z" fill="#7F40BD"/>
</svg>
