<svg width="25" height="25" viewBox="0 0 25 25" fill="none" xmlns="http://www.w3.org/2000/svg">
<path d="M12.5031 0H12.4969C5.60469 0 0 5.60625 0 12.5C0 15.2344 0.88125 17.7687 2.37969 19.8266L0.821875 24.4703L5.62656 22.9344C7.60313 24.2438 9.96094 25 12.5031 25C19.3953 25 25 19.3922 25 12.5C25 5.60781 19.3953 0 12.5031 0Z" fill="#4CAF50"/>
<path d="M19.7766 17.6516C19.475 18.5031 18.2781 19.2094 17.3234 19.4156C16.6703 19.5547 15.8172 19.6656 12.9453 18.475C9.27186 16.9531 6.90624 13.2203 6.72186 12.9781C6.5453 12.7359 5.23749 11.0016 5.23749 9.20782C5.23749 7.41407 6.14843 6.54063 6.51561 6.16563C6.81718 5.85782 7.31561 5.71719 7.79374 5.71719C7.94843 5.71719 8.08749 5.72501 8.21249 5.73126C8.57968 5.74688 8.76405 5.76876 9.00624 6.34844C9.3078 7.07501 10.0422 8.86875 10.1297 9.05313C10.2187 9.2375 10.3078 9.4875 10.1828 9.72969C10.0656 9.97969 9.96249 10.0906 9.77811 10.3031C9.59374 10.5156 9.41874 10.6781 9.23436 10.9063C9.06561 11.1047 8.87499 11.3172 9.08749 11.6844C9.29999 12.0438 10.0344 13.2422 11.1156 14.2047C12.5109 15.4469 13.6422 15.8438 14.0469 16.0125C14.3484 16.1375 14.7078 16.1078 14.9281 15.8734C15.2078 15.5719 15.5531 15.0719 15.9047 14.5797C16.1547 14.2266 16.4703 14.1828 16.8016 14.3078C17.1391 14.425 18.925 15.3078 19.2922 15.4906C19.6594 15.675 19.9016 15.7625 19.9906 15.9172C20.0781 16.0719 20.0781 16.7984 19.7766 17.6516Z" fill="#FAFAFA"/>
</svg>
